<svg id="Layer_1" data-name="Layer 1" xmlns="http://www.w3.org/2000/svg" xmlns:xlink="http://www.w3.org/1999/xlink" viewBox="0 0 103.76 279.38"><defs><style>.cls-1,.cls-4{fill:none;}.cls-2{fill:#ecc1b2;}.cls-3{fill:#fbc5af;}.cls-4{stroke:#010101;stroke-miterlimit:10;}.cls-5{fill:#5bc6f2;}.cls-6{fill:#acd9ef;}.cls-7{opacity:0.31;}.cls-8{fill:#5f5c5e;}.cls-9{fill:#cf2631;}.cls-10{fill:#f5f4c7;}.cls-11{fill:#ea3234;}.cls-12{fill:#6f1111;}.cls-13{fill:#e9ddd5;}.cls-14{fill:#2a4d9f;}.cls-15,.cls-16{fill:#7ab5cd;}.cls-15{opacity:0.29;}.cls-15,.cls-17,.cls-18,.cls-19,.cls-34,.cls-37{isolation:isolate;}.cls-17{fill:#232e64;opacity:0.57;}.cls-18{fill:#253c7d;opacity:0.56;}.cls-19{fill:#de9886;}.cls-19,.cls-37{opacity:0.49;}.cls-20{fill:#583518;}.cls-21{fill:#fbd1b5;}.cls-22{fill:#ecb89a;}.cls-23{fill:#d89364;}.cls-24{fill:#fdede4;}.cls-25{fill:#fff;}.cls-26{clip-path:url(#clip-path);}.cls-27{fill:#240d0b;}.cls-28{fill:#804b22;}.cls-29{fill:#100a11;}.cls-30{fill:#fff9e3;}.cls-31{clip-path:url(#clip-path-2);}.cls-32{fill:#8b181b;}.cls-33{fill:#f3785b;}.cls-34{fill:#b8a997;opacity:0.6;}.cls-35{fill:#ee7874;}.cls-36{fill:#010101;}.cls-37{fill:#e7b2a6;}</style><clipPath id="clip-path" transform="translate(0 -13.07)"><path class="cls-1" d="M26.92,54c.6-1.55,1.13-3,3.26-3a8.78,8.78,0,0,1,5.31,1.79c.29.33,1.63,2.46,1.21,2.84a4.46,4.46,0,0,1-1.06.43,15.53,15.53,0,0,1-3,.28C30.74,56.4,27.71,56,26.92,54Z"/></clipPath><clipPath id="clip-path-2" transform="translate(0 -13.07)"><path class="cls-1" d="M52.52,56.65a14.14,14.14,0,0,1-3.05-.28,4.46,4.46,0,0,1-1.06-.43c-.42-.38.93-2.51,1.21-2.84a8.78,8.78,0,0,1,5.31-1.79c2.13,0,2.66,1.47,3.26,3C57.4,56.28,54.38,56.69,52.52,56.65Z"/></clipPath></defs><path class="cls-2" d="M50.24,92a14,14,0,0,1-3.08,1.34l-.08,0a8.55,8.55,0,0,1-5.41.15h0a9.48,9.48,0,0,1-4-2l.8-4.19,0-.08.15-.77.08-.41.32.06a24.83,24.83,0,0,0,4.43.41,23.87,23.87,0,0,0,5.77-.7l.14.83.1.58v.08Z" transform="translate(0 -13.07)"/><path class="cls-3" d="M86.32,123.28c.27,5.06,1.63,12.4,0,15.31-2.18,3.87-7.45,8.34-15.47,8.35V123.29H86.32Z" transform="translate(0 -13.07)"/><path class="cls-3" d="M9.89,125.88c-.27,5.06-1.63,12.4,0,15.31,2.18,3.87,7.45,8.34,15.47,8.35V125.89H9.89Z" transform="translate(0 -13.07)"/><path class="cls-4" d="M68,55.07a0,0,0,0,0,0,0" transform="translate(0 -13.07)"/><path class="cls-3" d="M67.69,44.28c-.11-.29-.23-.56-.36-.84a28,28,0,0,0-4.78-7.26.29.29,0,0,0-.47.06,9.08,9.08,0,0,1-1.26,1.66c-3.61,3.87-10.38,5.58-10.38,5.58C37.72,45.55,31.06,40.24,29,38.15a.64.64,0,0,0-1,.25c-.95,2.31-3.49,4.77-5.46,6.43-.7.58-1.32,1.07-1.77,1.42A2.16,2.16,0,0,0,20,47.39v0a4.29,4.29,0,0,0-.07.5,33.64,33.64,0,0,0,.39,7.25.43.43,0,0,1,0,.11c0,.39,0,.77,0,1.17a30,30,0,0,0,.39,4.88v0a27.43,27.43,0,0,0,1.1,2.95,2.18,2.18,0,0,1-.57.66c2.88,9.81,9.17,17.61,16.49,20.56,9.94,4,21.77-.91,29.58-21.83l.1-.28a2.77,2.77,0,0,1-.12-.41h0a30.36,30.36,0,0,0,1.52-5.52l.14-.11a1.88,1.88,0,0,1,1.21-.46c0-.15,0-.31,0-.46v-.17A30.82,30.82,0,0,0,67.69,44.28ZM46.4,49.75l.06.08c0-.2,0-1.06,0-1.49.55-.17,1.08-.42,1.63-.62a23.66,23.66,0,0,1,4.26-.95l1.12-.16a12.22,12.22,0,0,1,4.57.42,7.16,7.16,0,0,1,1.69,1.37,6,6,0,0,1,1.33,2.75.22.22,0,0,1,0,.08,1.21,1.21,0,0,0-.14.1,8.5,8.5,0,0,0-4.65-2.06c-3.26-.62-6.37.4-9.24,1.69a5,5,0,0,1-.85-.66,2.13,2.13,0,0,1-.08-.27,3.56,3.56,0,0,1-.08-.8A3.38,3.38,0,0,1,46.4,49.75Zm13.47,5a19.3,19.3,0,0,1-3.12,1.88,11,11,0,0,1-3.72.78,12.19,12.19,0,0,1-5.69-.77,2.91,2.91,0,0,1,.25-.6,8.77,8.77,0,0,1,1.63-3.34A7.6,7.6,0,0,1,56,50.81,3.2,3.2,0,0,1,58.17,52,4.78,4.78,0,0,1,59,54.32C59,54.53,59.39,54.62,59.87,54.76ZM41.34,56.31c0,3.06.24,6.62.43,9.67,0,.43-1.33.22-1.4-.19-.51-3,.45-6.46.78-9.49C41.16,56.2,41.34,56.21,41.34,56.31Zm-1.07,2.84a10.06,10.06,0,0,1,.63-2.76h0c-.17,1.54-.86,7.51-1,9.85.72.06,1.45.33,2.17.4h.1a5.39,5.39,0,0,0,.57,0h0l.14,0c.8-.14,2.29-.41,3-.49l.82-.21h0c-.84,1.63-1.66,4.35-4.09,3.29-1.09-.47-1.68-1.57-2.42-2.48l-.29-.19c-.06,0-.79-.16-.7-.57C39.38,65.12,40.15,59.92,40.27,59.15ZM23.91,51.43a.2.2,0,0,1,0-.07h0a6.1,6.1,0,0,1,1.15-2.83A6.72,6.72,0,0,1,26.64,47a12,12,0,0,1,4.54-.73l1.13.08a25.08,25.08,0,0,1,4.31.66c.56.17,1.1.38,1.67.52.06.42.13,1.27.13,1.47a.22.22,0,0,0,0-.08,3.33,3.33,0,0,1,.32-.54,3.64,3.64,0,0,1,0,.81h0l0,.11a.76.76,0,0,1,0,.16l-.19.19a4.48,4.48,0,0,1-.4.36l-.22.16c-3-1.09-6.12-1.89-9.33-1.06a8.52,8.52,0,0,0-4.5,2.37A1.19,1.19,0,0,0,23.91,51.43Zm8.29,5.65a11,11,0,0,1-3.72-.79,18.43,18.43,0,0,1-3.11-1.88c.47-.14.82-.23.87-.43a4.85,4.85,0,0,1,.82-2.29,3.12,3.12,0,0,1,2.13-1.22A7.62,7.62,0,0,1,36,52.36a8.84,8.84,0,0,1,1.63,3.34,3.16,3.16,0,0,1,.25.6A12,12,0,0,1,32.2,57.08Z" transform="translate(0 -13.07)"/><path class="cls-3" d="M20.68,61.35a27.43,27.43,0,0,0,1.1,2.95,2.18,2.18,0,0,1-.57.66c-.32-1.11-.61-2.24-.84-3.39s-.46-2.56-.6-3.87v0a41,41,0,0,1,.13-9.77,33.64,33.64,0,0,0,.39,7.25.43.43,0,0,1,0,.11c0,.39,0,.77,0,1.17a30,30,0,0,0,.39,4.88Z" transform="translate(0 -13.07)"/><path class="cls-3" d="M37.64,55.7a3.16,3.16,0,0,1,.25.6,12,12,0,0,1-5.69.78,11,11,0,0,1-3.72-.79,18.43,18.43,0,0,1-3.11-1.88c.47-.14.82-.23.87-.43a4.85,4.85,0,0,1,.82-2.29,3.12,3.12,0,0,1,2.13-1.22A7.62,7.62,0,0,1,36,52.36,8.84,8.84,0,0,1,37.64,55.7Z" transform="translate(0 -13.07)"/><path class="cls-3" d="M38.75,49.23h0a.43.43,0,0,1,0,.11.76.76,0,0,1,0,.16l-.19.19c-.13.12-.26.25-.4.36l-.22.16c-3-1.09-6.12-1.89-9.33-1.06a8.52,8.52,0,0,0-4.5,2.37,1.19,1.19,0,0,0-.15-.09.2.2,0,0,1,0-.07h0a6.1,6.1,0,0,1,1.15-2.83A6.72,6.72,0,0,1,26.64,47a12,12,0,0,1,4.54-.73l1.13.08a25.08,25.08,0,0,1,4.31.66c.56.17,1.1.38,1.67.52.06.42.13,1.27.13,1.47a.22.22,0,0,0,0-.08,3.33,3.33,0,0,1,.32-.54A3.64,3.64,0,0,1,38.75,49.23Z" transform="translate(0 -13.07)"/><path class="cls-3" d="M40.37,65.79c-.51-3,.45-6.46.78-9.49,0-.1.19-.09.19,0,0,3.06.24,6.62.43,9.67C41.8,66.41,40.44,66.2,40.37,65.79Z" transform="translate(0 -13.07)"/><path class="cls-3" d="M45.88,66.13l.82-.21h0c-.84,1.63-1.66,4.35-4.09,3.29-1.09-.47-1.68-1.57-2.42-2.48l-.29-.19c-.06,0-.79-.16-.7-.57.19-.87,1-6.07,1.08-6.84a10.06,10.06,0,0,1,.63-2.76h0c-.17,1.54-.86,7.51-1,9.85.72.06,1.45.33,2.17.4h.1a5.39,5.39,0,0,0,.57,0h0l.14,0C43.72,66.48,45.21,66.21,45.88,66.13Z" transform="translate(0 -13.07)"/><path class="cls-3" d="M59.87,54.76a19.3,19.3,0,0,1-3.12,1.88,11,11,0,0,1-3.72.78,12.19,12.19,0,0,1-5.69-.77,2.91,2.91,0,0,1,.25-.6,8.77,8.77,0,0,1,1.63-3.34A7.6,7.6,0,0,1,56,50.81,3.2,3.2,0,0,1,58.17,52,4.78,4.78,0,0,1,59,54.32C59,54.53,59.39,54.62,59.87,54.76Z" transform="translate(0 -13.07)"/><path class="cls-3" d="M59.76,48.4a6,6,0,0,1,1.33,2.75.22.22,0,0,1,0,.08,1.21,1.21,0,0,0-.14.1,8.5,8.5,0,0,0-4.65-2.06c-3.26-.62-6.37.4-9.24,1.69a5,5,0,0,1-.85-.66,2.13,2.13,0,0,1-.08-.27,3.56,3.56,0,0,1-.08-.8,3.38,3.38,0,0,1,.35.52l.06.08c0-.2,0-1.06,0-1.49.55-.17,1.08-.42,1.63-.62a23.66,23.66,0,0,1,4.26-.95l1.12-.16a12.22,12.22,0,0,1,4.57.42A7.16,7.16,0,0,1,59.76,48.4Z" transform="translate(0 -13.07)"/><path class="cls-3" d="M67.33,43.44a28,28,0,0,0-4.78-7.26.29.29,0,0,0-.47.06c-2.95,5-11.64,7.24-11.64,7.24C37.72,45.55,31.06,40.24,29,38.15a.64.64,0,0,0-1,.25c-.95,2.31-3.49,4.77-5.46,6.43-.7.58-1.32,1.07-1.77,1.42A2.16,2.16,0,0,0,20,47.39a41.79,41.79,0,0,1,4.35-13.45c1.74-3.33,9,8.15,24,5.23C60.94,35,63.48,25.42,67.69,44.28,67.58,44,67.46,43.72,67.33,43.44Z" transform="translate(0 -13.07)"/><path class="cls-3" d="M68.92,57.36a30,30,0,0,1-1.54,6,2.77,2.77,0,0,1-.12-.41h0a30.36,30.36,0,0,0,1.52-5.52Z" transform="translate(0 -13.07)"/><line class="cls-4" x1="72.38" y1="21.65" x2="72.35" y2="21.58"/><path class="cls-5" d="M51.81,90.08c0,4-3.5,7.2-7.81,7.2s-7.8-3.22-7.8-7.2a6.69,6.69,0,0,1,.61-2.79h1.61l-.8,4.19a9.48,9.48,0,0,0,4,2h0a8.55,8.55,0,0,0,5.41-.15l.08,0A14,14,0,0,0,50.24,92l-.8-4.72H51.2A6.69,6.69,0,0,1,51.81,90.08Z" transform="translate(0 -13.07)"/><path class="cls-6" d="M80.31,127c-2.25.88-3.91,1.49-5.14,1.91l-.13,0-1.25.4-.16.05s0,.09,0,.14c1.15,14.73,3.65,30.32,3.65,30.32a3.15,3.15,0,0,1-.22.33A12,12,0,0,1,75.31,162a35.46,35.46,0,0,1-3.56,2.68c-19.75,8.92-44.85.44-50.6-1.73-.79-.3-1.21-.48-1.21-.48a180.61,180.61,0,0,0,2.7-18.23c.37-3.8.62-7.4.76-10.71v0l-.3-.14-.3-.14c-1.51-.7-8.45-3.91-11.87-5.2-.43-.16-.81-.3-1.1-.39-3-.94-1.58-5.07-1.58-5.07s1.29-7.83,4.18-20a20.69,20.69,0,0,1,8.76-12.34,18.49,18.49,0,0,1,10.43-3.17l5.19.2a8.09,8.09,0,0,0-.61,2.59c-.12,4,3.47,7.2,7.78,7.2s7.8-3.22,7.8-7.2a7.73,7.73,0,0,0-.68-2.59l9.43-.2s7.31-.25,11.73,5.82l0,0c.72.94,12.32,16.26,14.42,28.27C86.71,121.23,88.38,123.79,80.31,127Z" transform="translate(0 -13.07)"/><g class="cls-7"><ellipse class="cls-8" cx="51.88" cy="276.8" rx="15.22" ry="52.01" transform="translate(-227.98 295.07) rotate(-85.77)"/></g><path class="cls-9" d="M36.35,277.79,27,279.2l-3.18.48c-7.47.6-13.8-2.42-14.11-6.75-.23-3.14,2.78-6.12,7.33-7.74.28-.1.56-.2.85-.28s.6-.18.9-.26l.87-.2a9.32,9.32,0,0,1,.92-.17c.29-.06.57-.1.87-.14s.81-.1,1.22-.13c7.13-.57,13.22,2.15,14,6.17l2.87-1.27.07,4.85A3.94,3.94,0,0,1,36.35,277.79Z" transform="translate(0 -13.07)"/><path class="cls-10" d="M21.82,267.68l-.88.1-.36-3.5c.29-.06.57-.1.87-.14Z" transform="translate(0 -13.07)"/><path class="cls-10" d="M20,268l-.88.11-.36-3.43.87-.2Z" transform="translate(0 -13.07)"/><path class="cls-10" d="M18.24,268.27l-.88.1L17,265.2c.28-.1.56-.2.85-.28Z" transform="translate(0 -13.07)"/><path class="cls-9" d="M68.6,279.05l8.65,4,2.94,1.35c7,2.67,13.91,1.54,15.33-2.55,1-3-1.11-6.68-5.08-9.51-.24-.17-.49-.35-.75-.51l-.8-.51-.79-.44q-.41-.23-.84-.42c-.26-.14-.53-.26-.8-.38s-.76-.32-1.14-.47C78.6,267,72,268,70.21,271.59l-2.43-2-1.31,4.65A4.06,4.06,0,0,0,68.6,279.05Z" transform="translate(0 -13.07)"/><path class="cls-10" d="M85.2,273.38l.82.34,1.25-3.27c-.26-.14-.53-.26-.8-.38Z" transform="translate(0 -13.07)"/><path class="cls-10" d="M86.84,274.16l.82.35,1.23-3.2-.79-.44Z" transform="translate(0 -13.07)"/><path class="cls-10" d="M88.49,275l.82.34,1.13-3c-.24-.17-.49-.35-.75-.51Z" transform="translate(0 -13.07)"/><path class="cls-11" d="M70,271.29a5.89,5.89,0,0,0,1,.3,31.18,31.18,0,0,0,5.8.81,27.11,27.11,0,0,0,6.84-1.09l.06,0c3.79-1.49,2.37-6.06,2.37-6.06a4.49,4.49,0,0,0-.87-4.16A3.73,3.73,0,0,0,84,260.3c-.38-.14-.78-.28-1.16-.4l-.09,0h-12a4.41,4.41,0,0,0-1.19.4l-.19.1c-1.1.63-2.35,2-1.78,4.86C67.58,265.23,66.16,269.81,70,271.29Z" transform="translate(0 -13.07)"/><path class="cls-12" d="M70,271.29a5.89,5.89,0,0,0,1,.3,31.18,31.18,0,0,0,5.8.81,27.11,27.11,0,0,0,6.84-1.09l.06,0c3.79-1.49,2.37-6.06,2.37-6.06a4.49,4.49,0,0,0-.87-4.16A3.73,3.73,0,0,0,84,260.3a4.61,4.61,0,0,0-1.16-.4l-.09,0h-12c-.4.12-.8.26-1.19.4l-.19.1c-1.1.63-2.35,2-1.78,4.86C67.58,265.23,66.16,269.81,70,271.29Z" transform="translate(0 -13.07)"/><polygon class="cls-13" points="67.32 228.17 67.71 231.43 69.81 248.19 81.69 247.48 80.7 227.37 67.32 228.17"/><path class="cls-11" d="M37.71,270.24a6.41,6.41,0,0,1-1,.24,30.94,30.94,0,0,1-5.83.48,26.52,26.52,0,0,1-6.77-1.48l-.06,0c-3.71-1.7-2.05-6.19-2.05-6.19a4.5,4.5,0,0,1,1.09-4.11,3.74,3.74,0,0,1,1.12-.71l1.17-.33a.19.19,0,0,1,.1,0l12,.69a4.52,4.52,0,0,1,1.17.46l.18.11c1.06.7,2.24,2.09,1.52,4.95C40.39,264.32,41.57,269,37.71,270.24Z" transform="translate(0 -13.07)"/><path class="cls-12" d="M37.71,270.24a6.41,6.41,0,0,1-1,.24,30.94,30.94,0,0,1-5.83.48,26.52,26.52,0,0,1-6.77-1.48l-.06,0c-3.71-1.7-2.05-6.19-2.05-6.19a4.5,4.5,0,0,1,1.09-4.11,3.74,3.74,0,0,1,1.12-.71,4.56,4.56,0,0,1,1.17-.33.19.19,0,0,1,.1,0l12,.69c.39.14.78.3,1.17.46l.18.11c1.06.7,2.24,2.09,1.52,4.95C40.39,264.32,41.57,269,37.71,270.24Z" transform="translate(0 -13.07)"/><polygon class="cls-13" points="39.9 226.78 39.49 230.04 37.34 246.81 25.46 246.13 26.52 226.02 39.9 226.78"/><path class="cls-14" d="M86.82,257.24a1.17,1.17,0,0,1-.91,1.4l-.13,0-16.94,2.47a1.08,1.08,0,0,1-1.2-1.06c-1.1-13-7.55-38.23-7.55-43.15,0-5.33-4.51-15.29-4.51-15.29a23.77,23.77,0,0,0-2.09-5.53c-.92-1.64-2.16-3-3.7-3-3.87,0-6.5,22.75-6.5,22.75l-2.07,40.73a1.53,1.53,0,0,1-1.46,1.53H22.53a1.55,1.55,0,0,1-1.46-1.71c.45-7.32,2.32-36.69.17-46.59-2.09-9.63-.64-36.56-.15-44.59,0-.57.06-1.05.09-1.42.05-.57.06-.88.06-.88,5.76,2.17,30.86,10.65,50.6,1.73,0,0,.67-.43,1.56-1.08.62-.46,1.33-1,2-1.6.14.78.31,1.7.49,2.74.33,1.84.7,4,1.1,6.45,1.84,11.21,4.11,27.19,3.43,34.36C79.44,215.87,85.64,250.88,86.82,257.24Z" transform="translate(0 -13.07)"/><path class="cls-15" d="M24.9,122.43a47,47,0,0,1-.39,5.18c-.25,2-.59,4-1,5.89v0l-.3-.14-.3-.14c.24-1.9.5-3.8.72-5.7.22-1.7.42-3.4.58-5.1s.31-3.41.33-5.14A23.71,23.71,0,0,1,24.9,122.43Z" transform="translate(0 -13.07)"/><path class="cls-16" d="M71.8,109.14s0,1.22-.1,3.29A26.65,26.65,0,0,1,71.8,109.14Z" transform="translate(0 -13.07)"/><path class="cls-15" d="M77.4,159.79a3.15,3.15,0,0,1-.22.33c-5.8-9.53-5.7-37.85-5.48-47.62a106.94,106.94,0,0,0,2.19,16.78l-.16.05s0,.09,0,.14C74.9,144.2,77.4,159.79,77.4,159.79Z" transform="translate(0 -13.07)"/><path class="cls-17" d="M75.89,164.71c-20,13-47.4,3.48-54.8.51,0-.57.06-1.05.09-1.42.05-.57.06-.88.06-.88,5.76,2.17,30.86,10.65,50.6,1.73A35.46,35.46,0,0,0,75.4,162C75.55,162.75,75.71,163.67,75.89,164.71Z" transform="translate(0 -13.07)"/><path class="cls-18" d="M86.82,257.24a1.17,1.17,0,0,1-.91,1.4l-.13,0c-3.12-11.91-7.56-47.75-6.81-57.29s-4.16-31.68-5.58-37.8c.62-.46,1.33-1,2-1.6.14.78.31,1.7.49,2.74.33,1.84.7,4,1.1,6.45,1.84,11.21,4.11,27.19,3.43,34.36C79.44,215.87,85.64,250.88,86.82,257.24Z" transform="translate(0 -13.07)"/><path class="cls-18" d="M53.49,196.1c-.92-1.64-2.16-3-3.7-3-3.87,0-6.5,22.75-6.5,22.75l-2.07,40.73a1.53,1.53,0,0,1-1.46,1.53H38.69c.6-16,2.7-59.9,7.69-63.67C52.5,189.82,53.49,196.1,53.49,196.1Z" transform="translate(0 -13.07)"/><path class="cls-19" d="M49.4,86.38c-3.47,2.27-8.85.54-10.74-.19l.08-.41.32.06a24.83,24.83,0,0,0,4.43.41,23.87,23.87,0,0,0,5.77-.7Z" transform="translate(0 -13.07)"/><path class="cls-20" d="M61.09,51.15a.22.22,0,0,1,0,.08,1.21,1.21,0,0,0-.14.1,8.5,8.5,0,0,0-4.65-2.06c-3.26-.62-6.37.4-9.24,1.69a5,5,0,0,1-.85-.66,2.13,2.13,0,0,1-.08-.27,3.56,3.56,0,0,1-.08-.8,3.38,3.38,0,0,1,.35.52l.06.08c0-.2,0-1.06,0-1.49.55-.17,1.08-.42,1.63-.62a23.66,23.66,0,0,1,4.26-.95l1.12-.16a12.22,12.22,0,0,1,4.57.42,7.16,7.16,0,0,1,1.69,1.37A6,6,0,0,1,61.09,51.15Z" transform="translate(0 -13.07)"/><path class="cls-20" d="M61.09,51.15a.22.22,0,0,1,0,.08,1.21,1.21,0,0,0-.14.1,8.5,8.5,0,0,0-4.65-2.06c-3.26-.62-6.37.4-9.24,1.69a5,5,0,0,1-.85-.66,2.13,2.13,0,0,1-.08-.27,1.19,1.19,0,0,0,.89,0,40.73,40.73,0,0,1,4.89-1.76A9.89,9.89,0,0,1,61.09,51.15Z" transform="translate(0 -13.07)"/><path class="cls-21" d="M46.7,65.92h0c-.84,1.63-1.66,4.35-4.09,3.29-1.09-.47-1.68-1.57-2.42-2.48a4.81,4.81,0,0,0-.42-.48c.22,0,.43,0,.65.08a15.94,15.94,0,0,0,1.69.28h.1a5.39,5.39,0,0,0,.57,0h0a17.54,17.54,0,0,0,3.1-.51Z" transform="translate(0 -13.07)"/><path class="cls-22" d="M46.7,65.92h0a7.41,7.41,0,0,1-2,1.31l-.24.09h0a5.84,5.84,0,0,1-4.33-.68c-.12-.13-.24-.27-.36-.39.22,0,.43,0,.65.08a15.94,15.94,0,0,0,1.69.28h.1a5.39,5.39,0,0,0,.57,0h0a17.54,17.54,0,0,0,3.1-.51Z" transform="translate(0 -13.07)"/><path class="cls-23" d="M41,66.86a4.66,4.66,0,0,0,1.45.52,6.21,6.21,0,0,0,2,0h0a3.17,3.17,0,0,0,1.18-.57,2.81,2.81,0,0,1-2.73,1,4.2,4.2,0,0,1-2.74-1l-.29-.19c-.06,0-.79-.16-.7-.57.19-.87,1-6.07,1.08-6.84a10.06,10.06,0,0,1,.63-2.76h0c-.17,1.54-.86,7.51-1,9.85.72.06,1.45.33,2.17.4h.1a2.72,2.72,0,0,0,.57,0h0l.14,0c.8-.14,2.29-.41,3-.49.23,0,.36,0,.34,0s0,0,0,0a17.83,17.83,0,0,1-3.72.78A9.26,9.26,0,0,0,41,66.86Z" transform="translate(0 -13.07)"/><path class="cls-24" d="M41.77,66c0,.43-1.33.22-1.4-.19-.51-3,.45-6.46.78-9.49,0-.1.19-.09.19,0C41.31,59.37,41.58,62.93,41.77,66Z" transform="translate(0 -13.07)"/><path class="cls-21" d="M37.64,55.7A8.84,8.84,0,0,0,36,52.36a7.62,7.62,0,0,0-6.82-1.89,3.12,3.12,0,0,0-2.13,1.22A4.85,4.85,0,0,0,26.24,54c0,.2-.4.29-.87.43a18.43,18.43,0,0,0,3.11,1.88,11,11,0,0,0,3.72.79,12,12,0,0,0,5.69-.78A3.16,3.16,0,0,0,37.64,55.7Zm-1.91.45c-.35,0-.71.07-1.06.09h-.09a14.9,14.9,0,0,1-1.89,0,19.17,19.17,0,0,1-4.61-.91,5.6,5.6,0,0,1-.6-.29.42.42,0,0,1,0-.06c-.09-.18-.56-.58-.62-.82a.27.27,0,0,1,0-.09.44.44,0,0,0-.14-.34,4.93,4.93,0,0,1,1.64-2.16.6.6,0,0,1,.13-.09,2.11,2.11,0,0,1,.34-.16,6,6,0,0,1,2.16-.3,9.19,9.19,0,0,1,1.73.21,5,5,0,0,1,2.79,1.55l.06.07A10.16,10.16,0,0,1,37,55C37.05,55.91,36.71,56.05,35.73,56.15Z" transform="translate(0 -13.07)"/><path class="cls-23" d="M26.42,54.17c1.21,2,4,2.4,5.61,2.49a26.28,26.28,0,0,0,4.83-.56l0,0a.5.5,0,0,0,.25-.43c0,.06.27.24.23.15-.37-.78-.63-1.61-1.07-2.36a6.55,6.55,0,0,0-4.23-2.61A10.41,10.41,0,0,0,31,50.66a3.93,3.93,0,0,0-3.51,1.07A6.81,6.81,0,0,0,26.42,54.17Z" transform="translate(0 -13.07)"/><path class="cls-25" d="M26.92,54c.6-1.55,1.13-3,3.26-3a8.78,8.78,0,0,1,5.31,1.79c.29.33,1.63,2.46,1.21,2.84a4.46,4.46,0,0,1-1.06.43,15.53,15.53,0,0,1-3,.28C30.74,56.4,27.71,56,26.92,54Z" transform="translate(0 -13.07)"/><g class="cls-26"><path class="cls-27" d="M34.5,53.91c0,1.86-1.14,3.36-2.54,3.36s-2.54-1.51-2.54-3.36,1.14-3.36,2.54-3.36S34.5,52.05,34.5,53.91Z" transform="translate(0 -13.07)"/><path class="cls-28" d="M32,50.78c-1.28,0-2.32,1.38-2.32,3.07s1,3.08,2.32,3.08,2.32-1.38,2.32-3.08S33.24,50.78,32,50.78Z" transform="translate(0 -13.07)"/><path class="cls-29" d="M33.53,53.72c0,1.17-.72,2.12-1.6,2.12s-1.6-1-1.6-2.12.72-2.12,1.6-2.12S33.53,52.55,33.53,53.72Z" transform="translate(0 -13.07)"/><path class="cls-30" d="M31.32,52.47c-.11.52-.47.89-.79.82s-.49-.55-.38-1.07.47-.89.79-.82S31.43,52,31.32,52.47Z" transform="translate(0 -13.07)"/><path class="cls-28" d="M33.22,55.41c-1.52,1.63-3,.36-3.08-1.53,0-.05-.34.25-.34.29a2.65,2.65,0,0,0,1.5,2.43,1.76,1.76,0,0,0,2.13-.85S33.26,55.37,33.22,55.41Z" transform="translate(0 -13.07)"/><path class="cls-28" d="M33.75,52.85a3.54,3.54,0,0,1-.33,2.27l.22.13A2.32,2.32,0,0,0,33.75,52.85Z" transform="translate(0 -13.07)"/></g><path class="cls-20" d="M38.75,49.23a.36.36,0,0,1,0,.11.76.76,0,0,1,0,.16l-.19.19c-.13.12-.26.25-.4.36l-.22.16c-3-1.09-6.12-1.89-9.33-1.06a8.52,8.52,0,0,0-4.5,2.37,1.19,1.19,0,0,0-.15-.09.2.2,0,0,1,0-.07h0a6.1,6.1,0,0,1,1.15-2.83A6.72,6.72,0,0,1,26.64,47a12,12,0,0,1,4.54-.73l1.13.08a25.08,25.08,0,0,1,4.31.66c.56.17,1.1.38,1.67.52.06.42.13,1.27.13,1.47a.22.22,0,0,0,0-.08,3.33,3.33,0,0,1,.32-.54A3.64,3.64,0,0,1,38.75,49.23Z" transform="translate(0 -13.07)"/><path class="cls-20" d="M38.76,49.23l0,.11a.94.94,0,0,1,0,.16l-.18.19c-.13.12-.26.25-.4.36l-.22.16c-3-1.09-6.12-1.89-9.33-1.06a8.52,8.52,0,0,0-4.5,2.37,1.19,1.19,0,0,0-.15-.09.2.2,0,0,1,0-.07h0a9.9,9.9,0,0,1,9-3.47,40,40,0,0,1,5,1.42,1.24,1.24,0,0,0,.89-.07Z" transform="translate(0 -13.07)"/><path class="cls-21" d="M59,54.32A4.78,4.78,0,0,0,58.17,52,3.2,3.2,0,0,0,56,50.81a7.6,7.6,0,0,0-6.82,1.9,8.77,8.77,0,0,0-1.63,3.34,2.91,2.91,0,0,0-.25.6,12.19,12.19,0,0,0,5.69.77,11,11,0,0,0,3.72-.78,19.3,19.3,0,0,0,3.12-1.88C59.39,54.62,59,54.53,59,54.32Zm-.59.12a.33.33,0,0,0,0,.1c-.07.24-.53.63-.63.82,0,0,0,0,0,.06a6.39,6.39,0,0,1-1.1.46h0a21.41,21.41,0,0,1-4.09.73l-.55,0a23.11,23.11,0,0,1-2.49-.15c-1-.1-1.32-.24-1.24-1.18.16-.3.33-.58.51-.86l0-.06a6.27,6.27,0,0,1,1.63-1.87,5.26,5.26,0,0,1,2.1-.92,5.58,5.58,0,0,1,.59-.1h.07a6.74,6.74,0,0,1,3.22.21,1,1,0,0,1,.23.11,4.5,4.5,0,0,1,1.88,2.3A.37.37,0,0,0,58.4,54.44Z" transform="translate(0 -13.07)"/><path class="cls-23" d="M57.65,52A3.93,3.93,0,0,0,54.14,51a10.41,10.41,0,0,0-1.12.16,6.53,6.53,0,0,0-4.23,2.61c-.44.75-.7,1.58-1.07,2.36,0,.08.19-.09.23-.15a.52.52,0,0,0,.25.43l0,0a26.28,26.28,0,0,0,4.83.56c1.56-.09,4.39-.53,5.61-2.49A6.66,6.66,0,0,0,57.65,52Z" transform="translate(0 -13.07)"/><path class="cls-25" d="M52.52,56.65a14.14,14.14,0,0,1-3.05-.28,4.46,4.46,0,0,1-1.06-.43c-.42-.38.93-2.51,1.21-2.84a8.78,8.78,0,0,1,5.31-1.79c2.13,0,2.66,1.47,3.26,3C57.4,56.28,54.38,56.69,52.52,56.65Z" transform="translate(0 -13.07)"/><g class="cls-31"><path class="cls-27" d="M55.7,54.2c0,1.86-1.14,3.36-2.54,3.36s-2.54-1.51-2.54-3.36,1.14-3.36,2.54-3.36S55.7,52.34,55.7,54.2Z" transform="translate(0 -13.07)"/><path class="cls-28" d="M53.16,51.07c-1.28,0-2.32,1.38-2.32,3.07s1,3.08,2.32,3.08,2.32-1.38,2.32-3.08S54.44,51.07,53.16,51.07Z" transform="translate(0 -13.07)"/><path class="cls-29" d="M54.73,54c0,1.17-.72,2.12-1.6,2.12s-1.6-1-1.6-2.12.72-2.12,1.6-2.12S54.73,52.84,54.73,54Z" transform="translate(0 -13.07)"/><path class="cls-30" d="M52.52,52.76c-.11.52-.47.89-.79.82s-.49-.55-.38-1.07.47-.89.79-.82S52.63,52.24,52.52,52.76Z" transform="translate(0 -13.07)"/><path class="cls-28" d="M54.42,55.71c-1.52,1.63-3,.36-3.08-1.53,0,0-.34.25-.34.29a2.65,2.65,0,0,0,1.5,2.43,1.76,1.76,0,0,0,2.13-.85C54.67,56,54.46,55.66,54.42,55.71Z" transform="translate(0 -13.07)"/><path class="cls-28" d="M55,53.14a3.54,3.54,0,0,1-.33,2.27l.23.13A2.36,2.36,0,0,0,55,53.14Z" transform="translate(0 -13.07)"/></g><path class="cls-32" d="M48.8,77.31c-2,1.81-5.33,2.39-8.53,1.45A6.26,6.26,0,0,1,38,77.54a16,16,0,0,1-1.87-2.46c-.08-.16-.15-.32-.22-.47a4.22,4.22,0,0,0-1.14-1.84,40.22,40.22,0,0,0,4.27.12,76.2,76.2,0,0,0,9.8-.42l1.41-.1a10.63,10.63,0,0,0,2.06-.3C51.32,73.89,50.57,75.73,48.8,77.31Z" transform="translate(0 -13.07)"/><path class="cls-33" d="M43.76,75.62a28.92,28.92,0,0,0-3.09,0,14.35,14.35,0,0,0-1.76.21,4,4,0,0,0-1.71.74,11,11,0,0,0,.78.91,6.26,6.26,0,0,0,2.29,1.22c3.2.94,6.51.36,8.53-1.45a8.38,8.38,0,0,0,.6-.59C48.35,75.76,45.07,75.66,43.76,75.62Z" transform="translate(0 -13.07)"/><path class="cls-25" d="M48.32,77.41a23.87,23.87,0,0,1-7.16.18,21.27,21.27,0,0,1-3.39-.7.78.78,0,0,0-.26.11c.15.18.31.37.48.54a6.26,6.26,0,0,0,2.29,1.22,9.23,9.23,0,0,0,8.26-1.23A.3.3,0,0,1,48.32,77.41Z" transform="translate(0 -13.07)"/><path class="cls-34" d="M48.32,77.41c-.32.06-.65.1-1,.15-1.18,1.72-4.66,1.73-7.29,1.13l.22.08a9.23,9.23,0,0,0,8.26-1.23A.34.34,0,0,1,48.32,77.41Z" transform="translate(0 -13.07)"/><path class="cls-25" d="M51.3,72.71c.13-.16.25-.34.37-.51-.45.08-.93.12-1.44.16l-1.41.1a76.2,76.2,0,0,1-9.8.42c-.34,0-2.09.05-3.65-.06a9.43,9.43,0,0,0,2,1.43,26.1,26.1,0,0,0,5.75.57,20.92,20.92,0,0,0,7.77-1.64A4.69,4.69,0,0,0,51.3,72.71Z" transform="translate(0 -13.07)"/><path class="cls-34" d="M50.23,72.37l-1.41.1a76.2,76.2,0,0,1-9.8.42c-.34,0-2.09,0-3.65-.06.26.24.53.46.8.67a.25.25,0,0,1,.21-.17,23.05,23.05,0,0,1,3.22-.1c1.45,0,2.89-.12,4.34-.21,1.28-.08,2.6-.1,3.86-.3a11.49,11.49,0,0,1,2.55-.19.25.25,0,0,1,.26.23,4.73,4.73,0,0,1,0,.53l.29-.12c.15-.15.29-.31.43-.47s.25-.34.37-.51A14.29,14.29,0,0,1,50.23,72.37Z" transform="translate(0 -13.07)"/><path class="cls-35" d="M40.69,76.19c-.11-.22-.58-.23-.82-.23a2.43,2.43,0,0,0-1,.14.38.38,0,0,0-.17.14l-.06.05c-.34.39.59.45.87.46S40.9,76.64,40.69,76.19Z" transform="translate(0 -13.07)"/><path class="cls-35" d="M40.92,76.86c-.17,0-.4.26-.17.27S41.14,76.87,40.92,76.86Z" transform="translate(0 -13.07)"/><path class="cls-36" d="M71.71,58.09c-.28,1.64-.5,2.85-.58,3.29a1.71,1.71,0,0,0-1.47.53,31.63,31.63,0,0,0,.47-5c0-.15,0-.31,0-.46v-.17a30.82,30.82,0,0,0-2.45-12c-.11-.29-.23-.56-.36-.84a28,28,0,0,0-4.78-7.26.29.29,0,0,0-.47.06c-2.95,5-11.64,7.24-11.64,7.24C37.72,45.55,31.06,40.24,29,38.15a.64.64,0,0,0-1,.25c-.95,2.31-3.49,4.77-5.46,6.43-.7.58-1.32,1.07-1.77,1.42A2.16,2.16,0,0,0,20,47.39v0a1.76,1.76,0,0,0-.07.45v0a33.64,33.64,0,0,0,.39,7.25.43.43,0,0,1,0,.11c0,.39,0,.77,0,1.17a30,30,0,0,0,.39,4.88v0a2.51,2.51,0,0,0,0,.27,1.06,1.06,0,0,0-.35,0,.82.82,0,0,0-.27,0,1.82,1.82,0,0,0-1.19,1A16.41,16.41,0,0,1,17.32,60C15.9,57,14.43,52.3,13.78,44.76,12.55,30.64,20,23.91,22.38,22.11a19.18,19.18,0,0,0-5,1.33c4.13-5.6,8.53-2.33,8.53-2.33.05-5,5-7.87,5.27-8a12.22,12.22,0,0,0-2.89,6.05C37.64,10.28,52,14.56,52,14.56s11.32,4.49,12.39,7.83,5.2,6.7,5.2,6.7A18.53,18.53,0,0,1,73,39.67l0,.06C74.08,42.67,72.6,52.71,71.71,58.09Z" transform="translate(0 -13.07)"/><path class="cls-3" d="M72,61.4c-.43,2.21-1.84,3.81-3.15,3.55a2.09,2.09,0,0,1-1.47-1.54,2.77,2.77,0,0,1-.12-.41h0a30.36,30.36,0,0,0,1.52-5.52l.14-.11a1.88,1.88,0,0,1,1.21-.46.75.75,0,0,1,.21,0,.08.08,0,0,1,0,0,2,2,0,0,1,1.32,1.17A5.39,5.39,0,0,1,72,61.4Z" transform="translate(0 -13.07)"/><path class="cls-3" d="M21.78,64.3a2.18,2.18,0,0,1-.57.66,1.49,1.49,0,0,1-.63.28c-1.32.25-2.73-1.33-3.15-3.56A6.38,6.38,0,0,1,17.32,60a4.37,4.37,0,0,1,.45-1.69A1.89,1.89,0,0,1,19,57.21a1.48,1.48,0,0,1,.66,0c0,.15.06.3.08.44v0a28.6,28.6,0,0,0,.91,3.62v0A27.43,27.43,0,0,0,21.78,64.3Z" transform="translate(0 -13.07)"/><path class="cls-37" d="M70.14,56.27v.17c0,.15,0,.31,0,.46a1.88,1.88,0,0,0-1.21.46l-.14.11A30.36,30.36,0,0,1,67.26,63h0a2.77,2.77,0,0,0,.12.41l-.1.28C59.47,84.61,47.64,89.53,37.7,85.52c29.56,1.53,32-39.21,23.12-47.62a9.08,9.08,0,0,0,1.26-1.66.29.29,0,0,1,.47-.06,28,28,0,0,1,4.78,7.26c.13.28.25.55.36.84A30.82,30.82,0,0,1,70.14,56.27Z" transform="translate(0 -13.07)"/></svg>