<svg id="Layer_1" data-name="Layer 1" xmlns="http://www.w3.org/2000/svg" xmlns:xlink="http://www.w3.org/1999/xlink" viewBox="0 0 100.76 255.81"><defs><style>.cls-1{fill:none;}.cls-2{opacity:0.3;}.cls-3{fill:#5f5c5e;}.cls-4{fill:#010101;}.cls-5{fill:#fbc5af;}.cls-6{fill:#ecc1b2;}.cls-7{fill:#f37e7f;}.cls-8{fill:#e87474;}.cls-9{fill:#f8a88a;opacity:0.5;}.cls-15,.cls-23,.cls-24,.cls-25,.cls-9{isolation:isolate;}.cls-10{fill:#180b0c;}.cls-11,.cls-25{fill:#d89364;}.cls-12{fill:#8b181b;}.cls-13{fill:#f3785b;}.cls-14{fill:#fff;}.cls-15{fill:#b8a997;opacity:0.6;}.cls-16{fill:#ee7874;}.cls-17{clip-path:url(#clip-path);}.cls-18{fill:#240d0b;}.cls-19{fill:#804b22;}.cls-20{fill:#100a11;}.cls-21{fill:#fff9e3;}.cls-22{clip-path:url(#clip-path-2);}.cls-23{fill:#ef3b3a;opacity:0.26;}.cls-24{fill:#de9886;opacity:0.49;}.cls-25{opacity:0.33;}</style><clipPath id="clip-path" transform="translate(0 -4.43)"><path class="cls-1" d="M54.74,44.36a15.28,15.28,0,0,1-3.17-.49,4.28,4.28,0,0,1-1.08-.52c-.41-.43,1.13-2.57,1.46-2.89a9.22,9.22,0,0,1,5.68-1.53c2.22.18,2.69,1.71,3.21,3.37C59.87,44.3,56.68,44.53,54.74,44.36Z"/></clipPath><clipPath id="clip-path-2" transform="translate(0 -4.43)"><path class="cls-1" d="M35.27,44.88a15.63,15.63,0,0,0,3.21-.09,4.49,4.49,0,0,0,1.14-.38c.46-.37-.8-2.69-1.08-3a9.22,9.22,0,0,0-5.44-2.22c-2.23-.1-2.88,1.36-3.61,2.94C30.19,44.18,33.32,44.8,35.27,44.88Z"/></clipPath></defs><g class="cls-2"><ellipse class="cls-3" cx="50.38" cy="246.87" rx="50.38" ry="8.94"/></g><path class="cls-4" d="M71.64,96.28C65.07,89.82,41,90.07,26.43,95,19.92,97.16,15,105.61,15,105.61S18.1,84.3,16.05,66.34a162.66,162.66,0,0,1,.07-32.54v0c.23-2.23.41-3.59.43-3.78v0A31.8,31.8,0,0,1,29.42,10.15c2-1.44,11.95-8,24.59-4.87S72.26,19,73.24,20.92a31.82,31.82,0,0,1,3,9.83c0,.18,0,.38.08.56,0,1.53-.11,4.82-.38,9.14C74.83,58.92,71.64,96.28,71.64,96.28Z" transform="translate(0 -4.43)"/><path class="cls-5" d="M70.14,49.72c-.81,2.34-2.4,3.88-3.58,3.44a2.09,2.09,0,0,1-1.07-1.69c-2.21,5-6.13,10.74-12.82,13.42A22.34,22.34,0,0,1,43,66.4l-1.43-.1a21,21,0,0,1-9-2.84A18.41,18.41,0,0,1,24.76,53.2a2.26,2.26,0,0,0-2.58-1.51h0c-1.25.18-2.47-1.67-2.72-4.14s.54-4.63,1.79-4.8c.2,0,.37.11.58.18a27.75,27.75,0,0,0,1.58,2.46c0-.29,0-.58,0-.82,0-.9,0-1.45,0-1.45,1.28-12.65,6.18-16.47,18-16.84,7.37-.23,11.73-3.52,14-6a2.09,2.09,0,0,1,1.34-.69,2.12,2.12,0,0,1,2.07,1.1,16.36,16.36,0,0,0,3.78,4.55c3.27,2.63,5.19,14.77,5.54,17.21a2.54,2.54,0,0,1,0,.87c-.07.38-.2,1-.39,1.77l0,.12.15-.22a1.67,1.67,0,0,1,1.61-.39C70.62,45.07,70.93,47.35,70.14,49.72Z" transform="translate(0 -4.43)"/><path class="cls-6" d="M55.14,69.54S50.77,81,36.7,72.27c0,0,2.57-1.22,3.61-5.24.07-.26.14-.53.19-.81.51,0,1,.09,1.57.12a26.2,26.2,0,0,0,10.56-1.4,12.15,12.15,0,0,0,.24,1.45A4.18,4.18,0,0,0,55.14,69.54Z" transform="translate(0 -4.43)"/><path class="cls-5" d="M25.2,116c-1.19,3.6-2.59,7.47-3.9,10.88,0,0,0,0,0,0-.16.34-.27.53-.27.53.3-1.51-7.64-18-10-22.56a7.8,7.8,0,0,1,0-7.94s6.34-12,8.08-15.14a17.32,17.32,0,0,1,7.61-6.4c1.2,2,2.77,5.68,1.39,9.65-2.08,6-3.36,5.54-3.36,5.54l-.43.66c-1.25,1.19-3.62,10.5-3.43,13.82C21.05,107.71,24,113.67,25.2,116Z" transform="translate(0 -4.43)"/><path class="cls-7" d="M82,177.09a.55.55,0,0,1-.19-.09,12.54,12.54,0,0,0-10.32-.72s-4.89,4.8-8.69,2.27a10.56,10.56,0,0,0-1.24-.71,8.72,8.72,0,0,0-6.06-.65s-4.18,4.14-9.19,2.24a3.75,3.75,0,0,1-.43-.16,8.5,8.5,0,0,1-1.05-.58l0,0-.27-.16c-5.77-3.87-10.26-1.42-10.26-1.42a12.88,12.88,0,0,1-6,1.46,12.08,12.08,0,0,1-5.14-1.14c-5.88-2.76-10-.69-13.49,1.17a5.88,5.88,0,0,1-6.4-.71C3,171.8,16,139.7,18.66,133.44c.74-1.74,1.66-4,2.63-6.53,0,0,0,0,0,0,1.31-3.42,2.71-7.28,3.9-10.88,1.06-3.23,2-6.25,2.46-8.56,1.45-6.74-2.91-16.86-2.91-16.86S26.05,91,28.11,85c1.38-4-.18-7.65-1.38-9.65a7.67,7.67,0,0,1,1.81-.55,53.08,53.08,0,0,0,8.17-2.57C50.79,81,55.15,69.53,55.15,69.53,59.79,70.42,67.62,75,67.62,75l-.54.59A11.5,11.5,0,0,0,64.4,87.54a14.5,14.5,0,0,0,1.07,2.64s-11.17,11.13-.75,27.1c.25.38.51.8.74,1.21a71.18,71.18,0,0,1,4.08,7.85c8.36,18.33,15.12,46.18,15.12,46.18S87.29,179.7,82,177.09Z" transform="translate(0 -4.43)"/><path class="cls-5" d="M82.9,109.75s-7.44,12.57-13.35,16.6a73,73,0,0,0-4.08-7.85c2.21-2.14,6.31-6.84,6.75-12.62,0,0,.86-2.29-1.33-5.44s-5-7.11-5.42-10.26c0,0-4.71-8.21,1.61-14.55l.54-.59S82.6,93.39,84,100.29,82.9,109.75,82.9,109.75Z" transform="translate(0 -4.43)"/><path class="cls-5" d="M67.83,247.79a10.57,10.57,0,0,0,0,1.79,125.83,125.83,0,0,1-13.5-6.36,35.51,35.51,0,0,1-4.19-2.72,11.68,11.68,0,0,1-1.47-1.33,6.14,6.14,0,0,0,.12-1q0-.31,0-.63c-.54-9.06-2.37-35.71-2.37-35.71s-.8-13.58-.56-22.51a7.36,7.36,0,0,0,3.72.63h.06a10.48,10.48,0,0,0,5.83-2.7,8.72,8.72,0,0,1,6.06.65,51,51,0,0,0-1.69,11.78c-.78,17.22-1.86,41-1.86,41l13.82,9.58,0,0,.9.61A9.52,9.52,0,0,0,67.83,247.79Z" transform="translate(0 -4.43)"/><path class="cls-5" d="M51.51,177.72" transform="translate(0 -4.43)"/><path class="cls-8" d="M75.43,254.37c-9.89,1.34-22.28-7-25.44-9.24a4.85,4.85,0,0,0,.39-1.77,11.18,11.18,0,0,0-.27-2.86c5.29,4.16,17.7,9.08,17.7,9.08a9.3,9.3,0,0,1,4.9-8.74l-.89-.62a.06.06,0,0,0,0,0c.26-.14,2.17-.89,6.48,4.94C82.93,251.4,75.43,254.37,75.43,254.37Z" transform="translate(0 -4.43)"/><path class="cls-9" d="M67.8,249.58a125.83,125.83,0,0,1-13.5-6.36,35.51,35.51,0,0,1-4.19-2.72,11.68,11.68,0,0,1-1.47-1.33,6.14,6.14,0,0,0,.12-1q0-.31,0-.63c-.54-9.06-2.37-35.71-2.37-35.71s-.8-13.58-.56-22.51a7.36,7.36,0,0,0,3.72.63h.06c.71,7.23,2.33,26.16.7,33.49-2,9.13-.09,25.06,2,27,1.74,1.6,11.9,5.91,15.48,7.39A11.77,11.77,0,0,0,67.8,249.58Z" transform="translate(0 -4.43)"/><path class="cls-5" d="M48.76,238.11a5.2,5.2,0,0,1-.12,1c-1.56,8.09-17.29,13.13-17.29,13.13.1-3.37-4.67-8.54-4.67-8.54a117.64,117.64,0,0,1,10-6.9c3.59-2,3.5-3.69-1.78-22.56a255.15,255.15,0,0,1-6.75-35.76,12.88,12.88,0,0,0,6-1.46s4.49-2.45,10.26,1.42a1.91,1.91,0,0,0,.27.16l0,0a7.84,7.84,0,0,0,1,.58,3.75,3.75,0,0,0,.43.16c.87,6,3.2,23.59,2,33.4,0,0,.06,16.54.12,18.3v.12c.16,2.47.3,4.64.4,6.24C48.76,237.69,48.77,237.9,48.76,238.11Z" transform="translate(0 -4.43)"/><path class="cls-7" d="M50.38,243.36a5,5,0,0,1-1.16,3C41.76,255.07,24,258.15,24,258.15a7,7,0,0,1-7.29-5.24c-1.55-4.87,5.56-8.49,8.1-9.61a1.53,1.53,0,0,1,1.6.21l.31.25s4.78,5.17,4.68,8.54c0,0,15.73-5,17.29-13.13a6,6,0,0,0,.12-1,4.3,4.3,0,0,1,1.35,2.39A11.07,11.07,0,0,1,50.38,243.36Z" transform="translate(0 -4.43)"/><path class="cls-10" d="M50,36.5a9.14,9.14,0,0,1,2.88-1.34,10.09,10.09,0,0,1,3.19-.39,9.18,9.18,0,0,1,3.15.69,8,8,0,0,1,2.64,1.78A15.29,15.29,0,0,0,59,36a11.61,11.61,0,0,0-3-.49,14.05,14.05,0,0,0-3,.21A22.11,22.11,0,0,0,50,36.5Z" transform="translate(0 -4.43)"/><path class="cls-10" d="M28.43,35.15a9.14,9.14,0,0,1,2.88-1.34,10.09,10.09,0,0,1,3.19-.39,9.18,9.18,0,0,1,3.15.69,8,8,0,0,1,2.64,1.78,15.29,15.29,0,0,0-2.84-1.22,11.61,11.61,0,0,0-3-.49,14.05,14.05,0,0,0-3,.21A19.24,19.24,0,0,0,28.43,35.15Z" transform="translate(0 -4.43)"/><path class="cls-11" d="M45.32,52.82a1.56,1.56,0,0,0,.13-.38.93.93,0,0,0,0-.37.86.86,0,0,0-.12-.35,2.29,2.29,0,0,0-.24-.33.8.8,0,0,1,.37.23.93.93,0,0,1,.2.41.85.85,0,0,1-.06.45A.88.88,0,0,1,45.32,52.82Z" transform="translate(0 -4.43)"/><path class="cls-11" d="M45,52.34a1.56,1.56,0,0,0,.13-.38.93.93,0,0,0,0-.37.86.86,0,0,0-.12-.35,2.29,2.29,0,0,0-.24-.33.8.8,0,0,1,.37.23.93.93,0,0,1,.2.41.85.85,0,0,1-.06.45A.76.76,0,0,1,45,52.34Z" transform="translate(0 -4.43)"/><path class="cls-11" d="M46,42.76q-.29,1-.51,2c-.15.67-.29,1.35-.39,2a29.78,29.78,0,0,0-.39,4.11,17,17,0,0,1,.19-4.15c.12-.68.26-1.36.44-2A15.18,15.18,0,0,1,46,42.76Z" transform="translate(0 -4.43)"/><path class="cls-12" d="M48.13,60.32a5.67,5.67,0,0,1-5.34.57A3.76,3.76,0,0,1,41.42,60a9.36,9.36,0,0,1-1.06-1.59l-.12-.3A2.58,2.58,0,0,0,39.61,57a25.32,25.32,0,0,0,2.64.24,45.75,45.75,0,0,0,6.08.12h.88a6.53,6.53,0,0,0,1.29-.11A10.51,10.51,0,0,1,48.13,60.32Z" transform="translate(0 -4.43)"/><path class="cls-13" d="M45.07,59.09A17.63,17.63,0,0,0,43.15,59a10,10,0,0,0-1.1.06,2.57,2.57,0,0,0-1.09.39,6.14,6.14,0,0,0,.45.59,3.9,3.9,0,0,0,1.37.85,5.64,5.64,0,0,0,5.34-.57c.14-.11.27-.23.39-.34C47.9,59.35,45.88,59.16,45.07,59.09Z" transform="translate(0 -4.43)"/><path class="cls-14" d="M47.82,60.37a14.71,14.71,0,0,1-4.44-.17,13.78,13.78,0,0,1-2.07-.56.43.43,0,0,0-.17.06c.09.12.18.24.28.35a3.9,3.9,0,0,0,1.37.85A5.71,5.71,0,0,0,48,60.46.25.25,0,0,1,47.82,60.37Z" transform="translate(0 -4.43)"/><path class="cls-15" d="M47.82,60.37l-.61.05c-.8,1-3,.89-4.56.41l.13.06a5.71,5.71,0,0,0,5.16-.44A.2.2,0,0,1,47.82,60.37Z" transform="translate(0 -4.43)"/><path class="cls-14" d="M49.85,57.58l.25-.3c-.28,0-.58,0-.9,0h-.88a47.47,47.47,0,0,1-6.08-.12C42,57.2,41,57.17,40,57a5.71,5.71,0,0,0,1.17,1,15.46,15.46,0,0,0,3.54.57,13.07,13.07,0,0,0,4.87-.71Z" transform="translate(0 -4.43)"/><path class="cls-15" d="M49.2,57.32h-.88a47.47,47.47,0,0,1-6.08-.12C42,57.19,41,57.16,40,57c.15.16.31.31.47.45a.15.15,0,0,1,.14-.09,14.85,14.85,0,0,1,2,.06c.9,0,1.8,0,2.7,0s1.61,0,2.4,0a7,7,0,0,1,1.59,0c.1,0,.16.08.15.15s0,.22,0,.33l.18-.06.28-.27.25-.3C49.82,57.31,49.52,57.31,49.2,57.32Z" transform="translate(0 -4.43)"/><path class="cls-16" d="M43.15,59.32c-.06-.14-.35-.16-.5-.18a1.5,1.5,0,0,0-.6,0,.21.21,0,0,0-.11.08l0,0c-.23.23.35.3.52.32S43.26,59.6,43.15,59.32Z" transform="translate(0 -4.43)"/><path class="cls-16" d="M43.26,59.74c-.11,0-.26.14-.12.16S43.4,59.75,43.26,59.74Z" transform="translate(0 -4.43)"/><path class="cls-11" d="M60.41,39.87a4.13,4.13,0,0,0-3.6-1.35,11.49,11.49,0,0,0-1.18.09A6.84,6.84,0,0,0,51,41.07c-.51.75-.84,1.61-1.27,2.4,0,.09.2-.08.25-.14a.58.58,0,0,0,.23.47l0,0a27.37,27.37,0,0,0,5,.9c1.64,0,4.63-.27,6-2.24A6.84,6.84,0,0,0,60.41,39.87Z" transform="translate(0 -4.43)"/><path class="cls-14" d="M54.74,44.36a15.28,15.28,0,0,1-3.17-.49,4.28,4.28,0,0,1-1.08-.52c-.41-.43,1.13-2.57,1.46-2.89a9.22,9.22,0,0,1,5.68-1.53c2.22.18,2.69,1.71,3.21,3.37C59.87,44.3,56.68,44.53,54.74,44.36Z" transform="translate(0 -4.43)"/><g class="cls-17"><path class="cls-18" d="M58.22,42c-.12,1.94-1.41,3.44-2.88,3.35s-2.56-1.74-2.44-3.68,1.41-3.44,2.88-3.35S58.34,40.06,58.22,42Z" transform="translate(0 -4.43)"/><path class="cls-19" d="M55.77,38.57c-1.34-.08-2.52,1.29-2.63,3.06S54,44.92,55.37,45s2.52-1.29,2.63-3.07S57.11,38.65,55.77,38.57Z" transform="translate(0 -4.43)"/><path class="cls-20" d="M57.22,41.75c-.08,1.22-.89,2.17-1.82,2.11a2,2,0,0,1-1.54-2.32c.08-1.23.89-2.17,1.82-2.11A2,2,0,0,1,57.22,41.75Z" transform="translate(0 -4.43)"/><path class="cls-21" d="M55,40.3c-.15.54-.55.9-.88.8s-.48-.61-.32-1.15.55-.9.88-.8S55.14,39.76,55,40.3Z" transform="translate(0 -4.43)"/><path class="cls-19" d="M56.79,43.5c-1.7,1.61-3.17.18-3.13-1.81,0,0-.37.24-.37.28a2.77,2.77,0,0,0,1.41,2.64A1.87,1.87,0,0,0,57,43.87S56.83,43.46,56.79,43.5Z" transform="translate(0 -4.43)"/><path class="cls-19" d="M57.51,40.85A3.65,3.65,0,0,1,57,43.2l.23.15A2.45,2.45,0,0,0,57.51,40.85Z" transform="translate(0 -4.43)"/></g><path class="cls-11" d="M30.2,39.71a4.12,4.12,0,0,1,3.74-.89,10.83,10.83,0,0,1,1.16.24,6.89,6.89,0,0,1,4.26,3c.41.81.63,1.7,1,2.54,0,.09-.19-.11-.23-.17a.58.58,0,0,1-.29.44l0,0a28,28,0,0,1-5.09.27c-1.63-.2-4.56-.85-5.7-3A6.86,6.86,0,0,1,30.2,39.71Z" transform="translate(0 -4.43)"/><path class="cls-14" d="M35.27,44.88a15.63,15.63,0,0,0,3.21-.09,4.49,4.49,0,0,0,1.14-.38c.46-.37-.8-2.69-1.08-3a9.22,9.22,0,0,0-5.44-2.22c-2.23-.1-2.88,1.36-3.61,2.94C30.19,44.18,33.32,44.8,35.27,44.88Z" transform="translate(0 -4.43)"/><g class="cls-22"><path class="cls-18" d="M32.11,42.11c-.12,1.94,1,3.59,2.44,3.68s2.76-1.41,2.88-3.35-1-3.59-2.44-3.68S32.23,40.17,32.11,42.11Z" transform="translate(0 -4.43)"/><path class="cls-19" d="M35,39c1.34.08,2.34,1.59,2.23,3.37s-1.29,3.15-2.63,3.07-2.34-1.59-2.23-3.37S33.63,38.92,35,39Z" transform="translate(0 -4.43)"/><path class="cls-20" d="M33.13,42a2,2,0,0,0,1.54,2.32c.93.06,1.74-.89,1.82-2.11A2,2,0,0,0,35,39.87C34,39.81,33.21,40.75,33.13,42Z" transform="translate(0 -4.43)"/><path class="cls-21" d="M35.53,40.82c.09.55.43,1,.78.91s.55-.54.46-1.1-.43-1-.78-.91S35.44,40.26,35.53,40.82Z" transform="translate(0 -4.43)"/><path class="cls-19" d="M33.34,43.77c1.48,1.81,3.13.58,3.33-1.4,0,0,.34.29.33.33a2.76,2.76,0,0,1-1.73,2.44,1.87,1.87,0,0,1-2.18-1C33.06,44.05,33.3,43.72,33.34,43.77Z" transform="translate(0 -4.43)"/><path class="cls-19" d="M33,41.05a3.65,3.65,0,0,0,.19,2.39l-.24.13A2.48,2.48,0,0,1,33,41.05Z" transform="translate(0 -4.43)"/></g><path class="cls-23" d="M82,177.09c-.2-18.76-18-55.19-22.18-66.27-3.6-9.5,2.18-19.63,4.61-23.27a14.5,14.5,0,0,0,1.07,2.64s-11.17,11.13-.75,27.1c.25.38.51.8.74,1.21a71.18,71.18,0,0,1,4.08,7.85c8.36,18.33,15.12,46.18,15.12,46.18S87.29,179.7,82,177.09Z" transform="translate(0 -4.43)"/><path class="cls-23" d="M31.69,109.05c2.07.44,4.15.72,6.23,1s4.16.44,6.25.54,4.18.18,6.28.16,4.2-.07,6.32-.11a43,43,0,0,1-6.29.93,48.37,48.37,0,0,1-6.37.07,47.85,47.85,0,0,1-6.32-.78A30.56,30.56,0,0,1,31.69,109.05Z" transform="translate(0 -4.43)"/><path class="cls-23" d="M34,115.36l-2.2,5.83L29.54,127,25,138.58c-1.55,3.85-3,7.72-4.51,11.6-.76,1.93-1.47,3.88-2.18,5.82l-1.07,2.92q-.49,1.47-1,2.94a124.14,124.14,0,0,1,3.52-12c1.33-3.94,2.81-7.82,4.29-11.71s3.1-7.71,4.76-11.52S32.15,119.09,34,115.36Z" transform="translate(0 -4.43)"/><path class="cls-23" d="M41,116.73c-.58,2.81-1.24,5.6-1.89,8.39l-2,8.35-2,8.35c-.32,1.39-.62,2.79-.88,4.19s-.5,2.81-.68,4.24a44.28,44.28,0,0,1,.78-8.59c.47-2.84,1.08-5.65,1.74-8.44s1.4-5.57,2.23-8.32S40,119.43,41,116.73Z" transform="translate(0 -4.43)"/><path class="cls-23" d="M45.38,117a76,76,0,0,1-.07,9.43,74,74,0,0,1-1.11,9.36A85.27,85.27,0,0,1,45.38,117Z" transform="translate(0 -4.43)"/><path class="cls-23" d="M56.94,116c1.36,3.93,2.57,7.9,3.74,11.89s2.22,8,3.28,12,2,8.07,2.79,12.15,1.58,8.17,2,12.31c-.23-1-.44-2-.65-3.05l-.7-3c-.46-2-.93-4-1.44-6-1-4-2-8.06-3-12.07l-3-12.07-1.51-6Z" transform="translate(0 -4.43)"/><path class="cls-23" d="M49.83,116.46c.65,2.8,1.15,5.63,1.62,8.46s.84,5.68,1.17,8.53.56,5.72.67,8.59a45.16,45.16,0,0,1-.3,8.62c0-1.44,0-2.86-.15-4.29s-.21-2.85-.35-4.27l-.91-8.53L50.65,125C50.35,122.17,50.05,119.32,49.83,116.46Z" transform="translate(0 -4.43)"/><path class="cls-24" d="M52.87,66.4A26,26,0,0,1,40.31,67c.07-.26.14-.53.19-.81.51,0,1,.09,1.57.12a26.2,26.2,0,0,0,10.56-1.4A10.31,10.31,0,0,0,52.87,66.4Z" transform="translate(0 -4.43)"/><path class="cls-25" d="M68,46.24s.51,3-1.48,4.6c0,0,1.14,1.89,1.81.11A15.27,15.27,0,0,0,69.11,47C69.12,46.8,69.29,45.34,68,46.24Z" transform="translate(0 -4.43)"/><path class="cls-24" d="M56.74,19.62c-1.15,2.9-5.44,8-21.27,9.73,0,0-10.94.44-11.12,15.18-.11,8.91,4.55,15.29,8.25,18.94a18.41,18.41,0,0,1-7.83-10.26,2.26,2.26,0,0,0-2.58-1.51h0c-1.25.18-2.47-1.67-2.72-4.14s.54-4.63,1.79-4.8c.2,0,.37.11.58.18a27.75,27.75,0,0,0,1.58,2.46c0-.29,0-.58,0-.82,0-.9,0-1.45,0-1.45,1.28-12.65,6.18-16.47,18-16.84,7.37-.23,11.73-3.52,14-6A1.9,1.9,0,0,1,56.74,19.62Z" transform="translate(0 -4.43)"/><path class="cls-25" d="M22,44.71s-.89,3,.89,4.75c0,0-1.37,1.74-1.81-.11a15.18,15.18,0,0,1-.31-4C20.77,45.12,20.79,43.66,22,44.71Z" transform="translate(0 -4.43)"/></svg>