<?xml version="1.0"?>
<svg xmlns="http://www.w3.org/2000/svg" xmlns:xlink="http://www.w3.org/1999/xlink" xmlns:svgjs="http://svgjs.com/svgjs" version="1.1" width="512" height="512" x="0" y="0" viewBox="0 0 512 512" style="enable-background:new 0 0 512 512" xml:space="preserve"><g><g xmlns="http://www.w3.org/2000/svg"><path d="m256 512c-42.255 0-84.135-10.514-121.112-30.406-3.647-1.962-5.014-6.51-3.052-10.158s6.51-5.014 10.158-3.052c34.8 18.721 74.223 28.616 114.006 28.616 53.824 0 106.472-18.201 148.693-51.326l-16.275-11.825c-4.769-3.464-6.749-9.558-4.927-15.164s7.005-9.372 12.899-9.372h21.327l6.591-20.284c1.821-5.605 7.005-9.372 12.899-9.372s11.078 3.766 12.899 9.372l6.591 20.283h21.327c5.894 0 11.078 3.766 12.899 9.372s-.159 11.699-4.927 15.164l-17.254 12.536 6.59 20.283c1.821 5.605-.159 11.699-4.927 15.164-4.769 3.465-11.176 3.465-15.944 0l-17.254-12.536-17.254 12.536c-4.769 3.466-11.176 3.464-15.944 0-4.221-3.066-6.257-8.193-5.405-13.218-41.951 28.113-91.783 43.387-142.604 43.387zm181.207-59.474c1.547 0 3.094.478 4.408 1.432l18.084 13.139-6.907-21.259c-1.004-3.09.096-6.476 2.725-8.385l18.084-13.139h-22.353c-3.249 0-6.129-2.092-7.133-5.183l-6.908-21.259-6.908 21.259c-1.004 3.09-3.884 5.183-7.133 5.183h-22.353l18.084 13.139c2.629 1.91 3.729 5.295 2.725 8.385l-6.907 21.258 18.084-13.139c1.314-.954 2.861-1.431 4.408-1.431zm-5.766-61.178h.01zm-358.071 100.652c-29.428 0-53.37-23.942-53.37-53.37 0-17.503 8.469-33.065 21.525-42.803-27.187-41.604-41.525-89.818-41.525-139.827 0-68.38 26.629-132.667 74.98-181.02 48.353-48.351 112.64-74.98 181.02-74.98 32.974 0 65.075 6.182 95.41 18.373 3.843 1.544 5.707 5.913 4.162 9.756s-5.912 5.708-9.756 4.162c-28.548-11.474-58.767-17.291-89.816-17.291-64.374 0-124.894 25.068-170.413 70.587s-70.587 106.039-70.587 170.413c0 47.478 13.725 93.234 39.735 132.616 5.804-2.169 12.084-3.356 18.635-3.356 29.428 0 53.37 23.941 53.37 53.37s-23.942 53.37-53.37 53.37zm0-91.74c-21.157 0-38.37 17.212-38.37 38.37s17.213 38.37 38.37 38.37 38.37-17.213 38.37-38.37-17.213-38.37-38.37-38.37zm242.51.349c-.813 0-1.64-.133-2.451-.414-3.915-1.354-5.991-5.625-4.638-9.539l7.505-21.707-20.586-58.077c-1.384-3.904.659-8.191 4.563-9.575 3.906-1.385 8.191.659 9.575 4.563l14.306 40.36 13.935-40.305c1.354-3.914 5.625-5.992 9.539-4.638 3.915 1.354 5.991 5.625 4.638 9.539l-29.298 84.741c-1.072 3.104-3.979 5.052-7.088 5.052zm153.553-9.773c-1.31 0-2.636-.343-3.841-1.064-3.555-2.125-4.714-6.73-2.588-10.286 22.24-37.199 33.996-79.9 33.996-123.486 0-87.957-47.933-168.942-125.093-211.35-3.63-1.995-4.956-6.555-2.96-10.185 1.995-3.63 6.554-4.957 10.185-2.96 19.319 10.618 36.908 23.509 52.517 38.24l54.745-54.745h-39.364c-4.142 0-7.5-3.358-7.5-7.5s3.358-7.5 7.5-7.5h57.47c4.142 0 7.5 3.358 7.5 7.5v57.471c0 4.142-3.358 7.5-7.5 7.5s-7.5-3.358-7.5-7.5v-39.365l-54.749 54.749c44.137 46.836 69.749 109.376 69.749 175.645 0 46.296-12.491 91.658-36.123 131.184-1.404 2.349-3.892 3.652-6.444 3.652zm-91.783-11.092c-4.411 0-8-3.589-8-8s3.589-8 8-8 8 3.589 8 8-3.588 8-8 8zm-128.602-7.254c-19.803 0-35.915-16.111-35.915-35.915 0-19.803 16.111-35.915 35.915-35.915s35.915 16.111 35.915 35.915c0 19.803-16.111 35.915-35.915 35.915zm0-56.83c-11.532 0-20.915 9.382-20.915 20.915s9.382 20.915 20.915 20.915 20.915-9.382 20.915-20.915-9.382-20.915-20.915-20.915zm-85.829 56.83c-7.812 0-15.05-2.508-20.951-6.76-.372 3.795-3.571 6.76-7.464 6.76-4.142 0-7.5-3.358-7.5-7.5v-84.741c0-4.142 3.358-7.5 7.5-7.5s7.5 3.358 7.5 7.5v27.145c5.894-4.236 13.119-6.733 20.915-6.733 19.804 0 35.915 16.111 35.915 35.915 0 19.802-16.112 35.914-35.915 35.914zm-20.915-35.915c0 11.533 9.382 20.915 20.915 20.915s20.915-9.382 20.915-20.915c0-11.532-9.382-20.915-20.915-20.915-11.532 0-20.915 9.382-20.915 20.915zm302.725 22.5c-12.407 0-22.5-10.093-22.5-22.5s10.093-22.5 22.5-22.5 22.5 10.093 22.5 22.5-10.093 22.5-22.5 22.5zm0-30c-4.136 0-7.5 3.364-7.5 7.5s3.364 7.5 7.5 7.5 7.5-3.364 7.5-7.5-3.364-7.5-7.5-7.5zm-67.403 23.36c-4.142 0-7.5-3.358-7.5-7.5v-67.958c0-4.142 3.358-7.5 7.5-7.5s7.5 3.358 7.5 7.5v67.958c0 4.142-3.358 7.5-7.5 7.5zm-126.638-115.086c-10.534 0-20.823-4.414-27.522-11.807-2.781-3.069-2.548-7.813.521-10.594 3.07-2.783 7.813-2.548 10.594.521 3.903 4.308 10.037 6.879 16.407 6.879 6.29 0 10.728-3.803 11.384-7.479.887-4.967-5.653-7.951-8.506-9.003-9.764-3.602-18.433-7.46-18.797-7.623-.361-.161-.709-.351-1.041-.566-6.521-4.252-9.881-11.708-8.768-19.461 1.188-8.271 7.242-15.011 15.801-17.589 17.022-5.128 31.048 6.434 31.637 6.929 3.17 2.666 3.58 7.396.915 10.567-2.666 3.169-7.396 3.58-10.567.915-.043-.035-8.495-6.811-17.658-4.049-4.255 1.282-5.109 4.175-5.28 5.359-.125.875-.188 2.983 1.72 4.482 2.161.946 9.423 4.083 17.229 6.963 15.683 5.785 19.624 17.076 18.081 25.713-2.053 11.498-13.05 19.843-26.15 19.843zm-82.753 0c-4.142 0-7.5-3.358-7.5-7.5v-62.558h-6.095c-4.142 0-7.5-3.358-7.5-7.5s3.358-7.5 7.5-7.5h6.095v-17.118c0-4.142 3.358-7.5 7.5-7.5s7.5 3.358 7.5 7.5v17.118h6.218c4.142 0 7.5 3.358 7.5 7.5s-3.358 7.5-7.5 7.5h-6.218v62.558c0 4.142-3.358 7.5-7.5 7.5zm-39 0c-4.142 0-7.5-3.358-7.5-7.5v-55.935c0-4.142 3.358-7.5 7.5-7.5s7.5 3.358 7.5 7.5v55.935c0 4.142-3.358 7.5-7.5 7.5zm255.399-.859c-3.893 0-7.092-2.965-7.464-6.76-5.901 4.252-13.139 6.76-20.951 6.76-19.804 0-35.915-16.111-35.915-35.915 0-19.803 16.111-35.915 35.915-35.915 7.812 0 15.051 2.508 20.951 6.76.372-3.795 3.571-6.76 7.464-6.76 4.142 0 7.5 3.358 7.5 7.5v56.83c0 4.142-3.358 7.5-7.5 7.5zm-28.415-56.83c-11.533 0-20.915 9.382-20.915 20.915s9.382 20.915 20.915 20.915 20.915-9.382 20.915-20.915-9.383-20.915-20.915-20.915zm-147.934-12.367c-1.043 0-2.104-.219-3.115-.681-3.767-1.723-5.424-6.173-3.702-9.94l11.258-24.618c1.722-3.768 6.171-5.426 9.94-3.702 3.767 1.723 5.424 6.173 3.702 9.94l-11.258 24.618c-1.26 2.757-3.981 4.383-6.825 4.383zm-79.074-12.188c-4.411 0-8-3.589-8-8s3.589-8 8-8 8 3.589 8 8-3.588 8-8 8zm-81.695-86.713c-12.407 0-22.5-10.093-22.5-22.5s10.093-22.5 22.5-22.5 22.5 10.093 22.5 22.5-10.093 22.5-22.5 22.5zm0-30c-4.136 0-7.5 3.364-7.5 7.5 0 4.135 3.364 7.5 7.5 7.5s7.5-3.365 7.5-7.5c0-4.136-3.364-7.5-7.5-7.5z" fill="#fffcfc" data-original="#000000" style=""/></g></g></svg>
