<?xml version="1.0"?>
<svg xmlns="http://www.w3.org/2000/svg" xmlns:xlink="http://www.w3.org/1999/xlink" xmlns:svgjs="http://svgjs.com/svgjs" version="1.1" width="512" height="512" x="0" y="0" viewBox="0 0 512 512" style="enable-background:new 0 0 512 512" xml:space="preserve" class=""><g><g xmlns="http://www.w3.org/2000/svg"><path d="m64.971 512c-1.919 0-3.839-.732-5.304-2.197l-23.432-23.432-23.432 23.432c-2.93 2.929-7.678 2.929-10.607 0s-2.929-7.678 0-10.606l23.433-23.432-23.432-23.432c-2.929-2.929-2.929-7.678 0-10.606 2.93-2.929 7.678-2.929 10.607 0l23.432 23.432 33.501-33.501c-19.308-20.456-35.186-44.027-46.936-69.897-1.714-3.771-.045-8.217 3.727-9.93s8.218-.044 9.93 3.727c18.89 41.586 49.108 76.862 87.39 102.012 39.263 25.795 84.961 39.43 132.152 39.43 53.812 0 106.479-18.203 148.693-51.326l-16.275-11.825c-4.769-3.465-6.748-9.559-4.927-15.164s7.005-9.372 12.899-9.372h21.327l6.591-20.284c1.82-5.605 7.004-9.372 12.898-9.372s11.078 3.767 12.898 9.373l6.591 20.283h21.327c5.895 0 11.078 3.767 12.899 9.372s-.159 11.699-4.928 15.164l-17.254 12.536 6.591 20.283c1.821 5.606-.159 11.7-4.927 15.164-4.77 3.465-11.175 3.464-15.944 0l-17.254-12.536-17.254 12.536c-4.768 3.465-11.176 3.465-15.945 0-4.212-3.061-6.248-8.173-5.409-13.188-17.403 11.7-36.129 21.185-55.903 28.301-27.757 9.99-56.926 15.055-86.694 15.055-50.127 0-98.673-14.487-140.39-41.895-12.612-8.286-24.402-17.609-35.264-27.846l-33.505 33.505 23.433 23.432c2.929 2.929 2.929 7.678 0 10.606-1.464 1.466-3.384 2.198-5.303 2.198zm396.096-40.696h.01zm-23.86-18.778c1.547 0 3.094.478 4.408 1.433l18.084 13.139-6.907-21.259c-1.004-3.09.096-6.476 2.725-8.385l18.084-13.139h-22.354c-3.249 0-6.129-2.092-7.133-5.183l-6.907-21.258-6.907 21.258c-1.004 3.09-3.884 5.183-7.133 5.183h-22.354l18.084 13.139c2.629 1.91 3.729 5.295 2.725 8.386l-6.907 21.259 18.084-13.139c1.315-.956 2.861-1.434 4.408-1.434zm39.972-30.812c-.001 0-.001 0-.002.001zm-134.375 39.416c-12.406 0-22.5-10.093-22.5-22.5s10.094-22.5 22.5-22.5 22.5 10.093 22.5 22.5-10.094 22.5-22.5 22.5zm0-30c-4.136 0-7.5 3.364-7.5 7.5s3.364 7.5 7.5 7.5 7.5-3.364 7.5-7.5-3.364-7.5-7.5-7.5zm-159.432-20.797c-13.319 0-22.979-4.433-27.816-8.813-.566-.406-1.085-.899-1.536-1.477l-.062-.077c.168.201.396.429.678.663-1.332-1.388-2.165-2.739-2.462-3.908-.873-3.438.782-7.021 3.967-8.583.881-.432 5.316-2.277 9.197 2.07 1.075.958 7.006 5.613 19.943 5.085 6.844-.283 11.218-3.269 13.764-9.397 2.229-5.365 2.088-10.972 2.086-11.028-.003-.075-.005-.188-.005-.264v-8.842c-5.893 4.232-13.114 6.728-20.907 6.728-19.804 0-35.915-16.111-35.915-35.915 0-19.803 16.111-35.915 35.915-35.915 7.81 0 15.044 2.505 20.944 6.754.374-3.792 3.572-6.754 7.463-6.754 4.143 0 7.5 3.358 7.5 7.5v27.663c.005.25.008.5.008.752s-.003.501-.008.752v37.138c.423 12.034-5.335 34.787-30.226 35.816-.855.035-1.7.052-2.528.052zm-3.153-94.673c-11.532 0-20.915 9.382-20.915 20.915s9.383 20.915 20.915 20.915c11.341 0 20.603-9.073 20.907-20.342v-1.147c-.304-11.268-9.566-20.341-20.907-20.341zm291.574 71.145c-1.264 0-2.545-.32-3.72-.993-3.595-2.058-4.84-6.641-2.782-10.235 20.744-36.227 31.709-77.576 31.709-119.577 0-42.349-11.094-83.85-32.121-120.293-2.694.427-5.368.268-7.965-.534-8.132-2.511-25.936-21.311-40.539-38.008-21.474 5.561-46.774 11.056-54.908 8.544-15.031-4.641-20.066-28.547-11.713-55.61 3.646-11.81 9.353-22.333 16.068-29.631 8.045-8.74 16.905-12.185 24.951-9.701 8.135 2.511 25.937 21.311 40.539 38.008 21.474-5.561 46.775-11.058 54.909-8.544h-.001c8.046 2.483 13.424 10.324 15.143 22.077 1.435 9.813.217 21.723-3.429 33.533-4.488 14.542-11.659 26.154-19.664 33.064 22.082 38.552 33.73 82.385 33.73 127.095 0 44.611-11.65 88.538-33.691 127.031-1.386 2.419-3.914 3.774-6.516 3.774zm-10.364-265.939c4.324 1.139 15.872-9.037 22.174-29.449 2.957-9.581 4.021-19.399 2.918-26.939-.879-6.014-2.945-9.276-4.637-9.885-4.099-.729-23.36 2.46-51.251 9.868-2.772.737-5.726-.175-7.601-2.346-18.862-21.841-32.975-35.337-36.771-37.04-1.741-.451-5.285 1.079-9.401 5.552-5.16 5.606-9.815 14.316-12.773 23.896-6.301 20.413-2.491 35.333 1.716 36.824 4.087.733 23.354-2.458 51.253-9.868 2.772-.738 5.725.174 7.601 2.346 18.867 21.847 32.98 35.344 36.772 37.041zm-101.778 258.878c-4.411 0-8-3.589-8-8s3.589-8 8-8 8 3.589 8 8-3.589 8-8 8zm-34.025-.592c-4.143 0-7.5-3.358-7.5-7.5v-94.676c0-4.142 3.357-7.5 7.5-7.5s7.5 3.358 7.5 7.5v94.676c0 4.143-3.357 7.5-7.5 7.5zm-49 0c-4.143 0-7.5-3.358-7.5-7.5v-63.492c0-4.142 3.357-7.5 7.5-7.5s7.5 3.358 7.5 7.5v.602c4.438-3.914 7.962-5.652 8.433-5.875 3.74-1.776 8.215-.186 9.993 3.556 1.768 3.721.202 8.167-3.495 9.964-.164.083-3.526 1.833-7.417 5.928-6.972 7.338-7.514 10.645-7.514 11.483v37.835c0 4.142-3.357 7.499-7.5 7.499zm-34 0c-4.143 0-7.5-3.358-7.5-7.5v-55.935c0-4.142 3.357-7.5 7.5-7.5s7.5 3.358 7.5 7.5v55.935c0 4.143-3.357 7.5-7.5 7.5zm117-26.717c-4.143 0-7.5-3.358-7.5-7.5v-67.958c0-4.142 3.357-7.5 7.5-7.5s7.5 3.358 7.5 7.5v67.958c0 4.142-3.357 7.5-7.5 7.5zm-340.296-12.949c-3.172 0-6.118-2.028-7.14-5.211-8.088-25.213-12.19-51.549-12.19-78.275 0-68.38 26.629-132.667 74.98-181.02 48.352-48.351 112.64-74.98 181.02-74.98 28.308 0 56.122 4.591 82.671 13.645 3.92 1.337 6.015 5.599 4.678 9.52-1.338 3.921-5.601 6.011-9.52 4.678-24.986-8.522-51.172-12.843-77.829-12.843-64.374 0-124.894 25.068-170.413 70.587-45.518 45.519-70.587 106.04-70.587 170.413 0 25.168 3.86 49.962 11.474 73.693 1.266 3.944-.906 8.167-4.851 9.433-.761.244-1.533.36-2.293.36zm223.272-42.578c-4.411 0-8-3.589-8-8s3.589-8 8-8 8 3.589 8 8-3.589 8-8 8zm142.032-56.64c-4.143 0-7.5-3.358-7.5-7.5v-3.012c-5.895 4.236-13.119 6.734-20.915 6.734-19.804 0-35.915-16.111-35.915-35.915 0-19.803 16.111-35.915 35.915-35.915 7.796 0 15.021 2.498 20.915 6.733v-3.012c0-4.142 3.357-7.5 7.5-7.5s7.5 3.358 7.5 7.5v64.386c0 4.143-3.357 7.501-7.5 7.501zm-28.415-60.608c-11.532 0-20.915 9.382-20.915 20.915s9.383 20.915 20.915 20.915 20.915-9.382 20.915-20.915c0-11.532-9.383-20.915-20.915-20.915zm-105.23 57.689c-10.533 0-20.822-4.414-27.522-11.807-2.781-3.069-2.548-7.813.521-10.594 3.068-2.781 7.812-2.549 10.594.521 3.903 4.308 10.037 6.88 16.407 6.88 6.29 0 10.728-3.803 11.384-7.479.887-4.967-5.652-7.951-8.506-9.003-9.765-3.602-18.433-7.46-18.797-7.623-.361-.161-.709-.351-1.04-.566-6.521-4.251-9.882-11.708-8.769-19.46 1.187-8.272 7.241-15.012 15.8-17.59 17.022-5.13 31.049 6.435 31.638 6.929 3.171 2.665 3.58 7.396.915 10.567s-7.396 3.581-10.567.916c-.044-.035-8.49-6.812-17.659-4.049-4.254 1.282-5.108 4.174-5.278 5.359-.126.875-.188 2.982 1.72 4.482 2.161.946 9.423 4.083 17.229 6.963 15.683 5.785 19.623 17.076 18.081 25.713-2.054 11.497-13.052 19.841-26.151 19.841zm-82.753 0c-4.143 0-7.5-3.358-7.5-7.5v-62.558h-6.095c-4.143 0-7.5-3.358-7.5-7.5s3.357-7.5 7.5-7.5h6.095v-17.118c0-4.142 3.357-7.5 7.5-7.5s7.5 3.358 7.5 7.5v17.118h6.218c4.143 0 7.5 3.358 7.5 7.5s-3.357 7.5-7.5 7.5h-6.218v62.558c0 4.142-3.358 7.5-7.5 7.5zm-39 0c-4.143 0-7.5-3.358-7.5-7.5v-55.935c0-4.142 3.357-7.5 7.5-7.5s7.5 3.358 7.5 7.5v55.935c0 4.142-3.358 7.5-7.5 7.5zm79.049-70.055c-1.043 0-2.104-.219-3.114-.681-3.767-1.723-5.424-6.173-3.701-9.939l11.257-24.618c1.722-3.767 6.173-5.427 9.939-3.702 3.767 1.723 5.424 6.173 3.701 9.939l-11.257 24.618c-1.259 2.756-3.98 4.383-6.825 4.383zm-79.074-12.188c-4.411 0-8-3.589-8-8s3.589-8 8-8 8 3.589 8 8-3.589 8-8 8zm-81.694-86.714c-12.406 0-22.5-10.093-22.5-22.5s10.094-22.5 22.5-22.5 22.5 10.093 22.5 22.5-10.094 22.5-22.5 22.5zm0-30c-4.136 0-7.5 3.364-7.5 7.5 0 4.135 3.364 7.5 7.5 7.5s7.5-3.365 7.5-7.5c0-4.136-3.364-7.5-7.5-7.5z" fill="#ed83ca" data-original="#000000" style="" class=""/></g></g></svg>
