<?xml version="1.0" standalone="no"?><svg xmlns="http://www.w3.org/2000/svg" viewBox="0 0 1440 320"><path fill="#0f54a1" fill-opacity="1" d="M0,64L40,101.3C80,139,160,213,240,245.3C320,277,400,267,480,245.3C560,224,640,192,720,154.7C800,117,880,75,960,90.7C1040,107,1120,181,1200,192C1280,203,1360,149,1400,122.7L1440,96L1440,320L1400,320C1360,320,1280,320,1200,320C1120,320,1040,320,960,320C880,320,800,320,720,320C640,320,560,320,480,320C400,320,320,320,240,320C160,320,80,320,40,320L0,320Z"></path></svg>