<svg id="Capa_1" enable-background="new 0 0 512 512" height="512" viewBox="0 0 512 512" width="512" xmlns="http://www.w3.org/2000/svg"><g><path d="m403.564 135.167-53.868 113.636-139.687 79.603-62.441-154.178 147.56-147.319z" fill="#ff6c6c"/><path d="m512 243.425-147.561 147.319-154.43-62.338 193.555-193.239z" fill="#ff3f5c"/><path d="m256.003 282.486-50.829 88.273-96.738 59.053-108.436-108.258 147.568-147.326z" fill="#f2eedf"/><g><g fill="#ff3f5c"><path d="m406.978 234.078-21.248 21.213-102.479-102.312 21.248-21.213z"/><path d="m338.984 251.048-21.248 21.213-51.484-51.399 21.248-21.214z"/></g></g><g fill="#e8d9cd"><path d="m366.952 455.091h30.049v30h-30.049z"/><path d="m402.467 395.091h30.049v30h-30.049z"/><path d="m437.001 455.091h30.049v30h-30.049z"/></g><path d="m317.736 272.261-25.745-25.703 21.248-21.213 25.745 25.703z" fill="#d10041"/><path d="m385.73 255.291-51.243-51.159 21.248-21.214 51.243 51.16z" fill="#d10041"/><path d="m364.439 390.744-94.497 94.342h-106.141l-55.365-55.274 147.567-147.326z" fill="#e8d9cd"/></g></svg>